# xmcd
#
# Track frame offsets:
#	150
#	11745
#	25397
#	50867
#	62327
#	86590
#	100472
#	120472
#	140322
#	158945
#
# Disc length: 2245 seconds
#
# Revision: 2
# Processed by: cddbd v1.4PL0 Copyright (c) Steve Scherf et al.
# Submitted via: CDmax 1.9
#
DISCID=8208c30a
DTITLE=Gary Chapman - Hymns from the Ryman
DYEAR=1997
DGENRE=Country
TTITLE0=Sunday at the Ryman
TTITLE1=Amazing Grace
TTITLE2=Sweet Hour of Prayer
TTITLE3=Jesu - Joy of Man's Desiring
TTITLE4=Softly and Tenderly
TTITLE5=This is My Father's World
TTITLE6=Fairest Lord Jesus
TTITLE7='Tis So Sweet
TTITLE8=Holy, Holy, Holy
TTITLE9=The Lord Bless You and Keep You
EXTD=
EXTT0=
EXTT1=
EXTT2=
EXTT3=
EXTT4=
EXTT5=
EXTT6=
EXTT7=
EXTT8=
EXTT9=
PLAYORDER=
